Coordinates
version=1
nRows=18
nColumns=22
inDegrees=yes

Units are S.I. units (second, meters, Newtons, ...)
If the header above contains a line with 'inDegrees', this indicates whether rotational values are in degrees (yes) or radians (no).

endheader
time	pelvis_tilt	pelvis_list	pelvis_rotation	pelvis_tx	pelvis_ty	pelvis_tz	hip_flexion_r	hip_adduction_r	hip_rotation_r	knee_angle_r	ankle_angle_r	subtalar_angle_r	hip_flexion_l	hip_adduction_l	hip_rotation_l	knee_angle_l	ankle_angle_l	subtalar_angle_l	lumbar_extension	lumbar_bending	lumbar_rotation
      4.40000000	    -11.56526996	     -0.71105834	    -11.38857509	      1.33320259	      0.96729815	      0.34942517	     15.35323405	      0.81482694	      1.34077514	    -51.09543743	     10.42079093	     11.96560089	     34.15518747	     -0.40716466	     -3.32906447	    -27.24676092	      9.60698802	     -2.29744792	      3.95380665	      4.29644935	      6.95163726
      4.41000000	    -11.37104803	     -0.48004986	    -11.29968882	      1.33954390	      0.96813541	      0.34832923	     15.99114908	      0.06582450	      0.54609137	    -51.90827755	     10.87375079	     10.64011414	     33.56832280	      0.04418585	     -3.34064053	    -27.16601895	      9.95952837	     -2.41017010	      3.84879237	      4.06488033	      6.58573835
      4.42000000	    -11.14583272	     -0.29023051	    -11.14946094	      1.34583860	      0.96907061	      0.34716588	     16.52547075	     -0.65412173	     -0.29085506	    -52.50025333	     11.42123896	      9.32467880	     32.93642516	      0.49271470	     -3.28757553	    -27.05712897	     10.28980450	     -2.49570699	      3.71012347	      3.87046832	      6.17494540
      4.43000000	    -10.89841679	     -0.13304734	    -10.95050223	      1.35208523	      0.97008988	      0.34598221	     16.96207741	     -1.33821386	     -1.14649736	    -52.87138889	     12.03275294	      8.12437240	     32.26216172	      0.93116825	     -3.20188093	    -26.90986314	     10.58978142	     -2.56343652	      3.54984568	      3.70155129	      5.73086886
      4.44000000	    -10.64009938	     -0.01314444	    -10.71337858	      1.35824669	      0.97115193	      0.34478878	     17.31702189	     -1.96069683	     -1.98565480	    -53.04016448	     12.71886567	      7.08327649	     31.55893916	      1.34868098	     -3.07815988	    -26.72963120	     10.87982250	     -2.62069437	      3.37861636	      3.57203393	      5.28890281
      4.45000000	    -10.38348781	      0.07990511	    -10.43977011	      1.36426890	      0.97221309	      0.34363069	     17.61502110	     -2.53001825	     -2.82342886	    -53.02627696	     13.44434997	      6.29591941	     30.85468696	      1.74137258	     -2.94933133	    -26.53639946	     11.12828518	     -2.66546128	      3.20523346	      3.45986336	      4.84395997
      4.46000000	    -10.12586846	      0.13560013	    -10.16358738	      1.37015051	      0.97329747	      0.34258643	     17.84575715	     -3.00450929	     -3.59946759	    -52.82225017	     14.22610987	      5.64190142	     30.12025933	      2.08655181	     -2.80161151	    -26.29101139	     11.38607170	     -2.71397914	      3.02696627	      3.37806472	      4.45307505
      4.47000000	     -9.88721729	      0.17473544	     -9.86811836	      1.37584674	      0.97433196	      0.34160988	     18.05165885	     -3.41727534	     -4.33940570	    -52.46851010	     15.02139328	      5.26042730	     29.40813507	      2.40023368	     -2.67349291	    -26.03544863	     11.61804779	     -2.75414186	      2.86585752	      3.30906674	      4.06108661
      4.48000000	     -9.71339871	      0.20497392	     -9.55873592	      1.38130237	      0.97523067	      0.34069686	     18.29498494	     -3.76745056	     -5.03773383	    -51.99038223	     15.83478454	      5.11171858	     28.77467903	      2.68821147	     -2.51971477	    -25.77723479	     11.80316333	     -2.77344269	      2.77544783	      3.25129729	      3.70348219
      4.49000000	     -9.48485487	      0.20708027	     -9.28862747	      1.38660196	      0.97621037	      0.33996169	     18.43568463	     -4.03082712	     -5.62969431	    -51.37342564	     16.64338945	      5.07723989	     28.06669239	      2.91610664	     -2.42708120	    -25.48871443	     12.01942486	     -2.82647771	      2.60939917	      3.20687530	      3.38545434
      4.50000000	     -9.31004796	      0.20189926	     -9.03836478	      1.39169242	      0.97706088	      0.33931076	     18.60595752	     -4.23630834	     -6.15592975	    -50.65448939	     17.44112326	      5.19061211	     27.43773985	      3.10742770	     -2.34801538	    -25.22655079	     12.21478245	     -2.87522596	      2.50295036	      3.17771746	      3.14536571
      4.51000000	     -9.14831612	      0.18103668	     -8.83598878	      1.39657772	      0.97785195	      0.33880521	     18.76986533	     -4.37146263	     -6.58262037	    -49.85338133	     18.22442726	      5.44120557	     26.83514139	      3.24744001	     -2.30589792	    -24.97809251	     12.41357838	     -2.93438824	      2.40217375	      3.16510572	      2.98327592
      4.52000000	     -9.03922759	      0.16008008	     -8.64722758	      1.40127926	      0.97851396	      0.33837451	     18.96666991	     -4.46503917	     -6.94543782	    -48.98412179	     18.95443885	      5.68924391	     26.30877106	      3.36593555	     -2.26421392	    -24.75000433	     12.60579690	     -2.97650845	      2.36301669	      3.16039016	      2.82495398
      4.53000000	     -8.92692517	      0.12681783	     -8.50677074	      1.40582771	      0.97914437	      0.33805723	     19.13786629	     -4.50790012	     -7.21327146	    -48.05881968	     19.64514443	      6.00500620	     25.79167941	      3.44626841	     -2.25536579	    -24.53812468	     12.80443601	     -3.03206491	      2.31416666	      3.17171451	      2.75138820
      4.54000000	     -8.83326998	      0.09252302	     -8.38763415	      1.41023672	      0.97968679	      0.33780444	     19.31096410	     -4.53053584	     -7.43678734	    -47.10561982	     20.28161214	      6.26404366	     25.31933177	      3.50911626	     -2.26320545	    -24.36080691	     13.01070826	     -3.08560988	      2.28740356	      3.18835661	      2.69810590
      4.55000000	     -8.73703531	      0.05865688	     -8.29968111	      1.41453260	      0.98019458	      0.33761572	     19.46659610	     -4.53709306	     -7.60220166	    -46.13983102	     20.85642975	      6.47476061	     24.85476335	      3.56183994	     -2.26991220	    -24.19345093	     13.20706050	     -3.14714254	      2.25865438	      3.20783960	      2.69183664
      4.56000000	     -8.63464493	      0.02759544	     -8.21554738	      1.41873342	      0.98065151	      0.33742505	     19.60170321	     -4.55217513	     -7.75992558	    -45.18446672	     21.38107633	      6.58042740	     24.40544426	      3.61827417	     -2.27136303	    -24.05530267	     13.40292531	     -3.21639410	      2.22429477	      3.22819069	      2.69704677
      4.57000000	     -8.54026118	      0.00458682	     -8.13017774	      1.42283748	      0.98102009	      0.33722706	     19.74101360	     -4.58821616	     -7.93313685	    -44.26639237	     21.87282605	      6.55761257	     23.99672396	      3.68107054	     -2.27410061	    -23.96425658	     13.60126762	     -3.28446471	      2.20227371	      3.24350201	      2.71712582
